<svg width="53" height="53" viewBox="0 0 53 53" fill="none" xmlns="http://www.w3.org/2000/svg">
<mask id="path-1-inside-1_64_1296" fill="white">
<path fill-rule="evenodd" clip-rule="evenodd" d="M0 14H13H26V27H13V40H26V53H13H0V40V27V14Z"/>
</mask>
<path d="M0 14V13H-1V14H0ZM26 14H27V13H26V14ZM26 27V28H27V27H26ZM13 27V26H12V27H13ZM13 40H12V41H13V40ZM26 40H27V39H26V40ZM26 53V54H27V53H26ZM0 53H-1V54H0V53ZM13 13H0V15H13V13ZM26 13H13V15H26V13ZM27 27V14H25V27H27ZM13 28H26V26H13V28ZM14 40V27H12V40H14ZM13 41H26V39H13V41ZM25 40V53H27V40H25ZM26 52H13V54H26V52ZM0 54H13V52H0V54ZM-1 40V53H1V40H-1ZM-1 27V40H1V27H-1ZM-1 14V27H1V14H-1Z" fill="#C778DD" mask="url(#path-1-inside-1_64_1296)"/>
<mask id="path-3-outside-2_64_1296" maskUnits="userSpaceOnUse" x="25" y="0" width="28" height="41" fill="black">
<rect fill="white" x="25" width="28" height="41"/>
<path fill-rule="evenodd" clip-rule="evenodd" d="M26 1H39H52V14V27V40H39H26V27H39V14H26V1Z"/>
</mask>
<path d="M26 1V0H25V1H26ZM52 1H53V0H52V1ZM52 40V41H53V40H52ZM26 40H25V41H26V40ZM26 27V26H25V27H26ZM39 27V28H40V27H39ZM39 14H40V13H39V14ZM26 14H25V15H26V14ZM39 1V0H26V1V2H39V1ZM52 1V0H39V1V2H52V1ZM52 14H53V1H52H51V14H52ZM52 27H53V14H52H51V27H52ZM52 40H53V27H52H51V40H52ZM39 40V41H52V40V39H39V40ZM39 40V39H26V40V41H39V40ZM26 40H27V27H26H25V40H26ZM26 27V28H39V27V26H26V27ZM39 14H38V27H39H40V14H39ZM26 14V15H39V14V13H26V14ZM26 1H25V14H26H27V1H26Z" fill="#C778DD" mask="url(#path-3-outside-2_64_1296)"/>
</svg>
